<svg width="177" height="40" viewBox="0 0 177 40" fill="none" xmlns="http://www.w3.org/2000/svg">
<g clip-path="url(#clip0_135_601)">
<path d="M16 0.799927C24.8366 0.799927 32 7.96337 32 16.7999C32 21.4947 29.9775 25.7168 26.7568 28.6437L16 39.4005L5.25 28.6505C2.02514 25.7234 0 21.4982 0 16.7999C0 7.96337 7.16344 0.799927 16 0.799927Z" fill="#0F6EFF"/>
<path d="M26.3233 29.076C24.9676 27.7203 23.3581 26.6449 21.5867 25.9112C19.8154 25.1774 17.9168 24.7998 15.9995 24.7998C14.0822 24.7998 12.1837 25.1774 10.4124 25.9112C8.64101 26.6449 7.03152 27.7203 5.67578 29.076L15.9995 39.3998L26.3233 29.076Z" fill="url(#paint0_linear_135_601)"/>
<circle cx="15.9996" cy="16.8004" r="6.4" fill="url(#paint1_linear_135_601)"/>
</g>
<path d="M168.383 32.384C166.633 32.384 165.055 31.9893 163.647 31.2C162.26 30.3893 161.151 29.2906 160.319 27.904C159.508 26.5173 159.103 24.96 159.103 23.232C159.103 21.504 159.508 19.9573 160.319 18.592C161.129 17.2053 162.239 16.1173 163.647 15.328C165.055 14.5386 166.633 14.144 168.383 14.144C169.684 14.144 170.889 14.368 171.999 14.816C173.108 15.264 174.057 15.8933 174.847 16.704C175.636 17.4933 176.201 18.432 176.543 19.52L172.383 21.312C172.084 20.4373 171.572 19.744 170.847 19.232C170.143 18.72 169.321 18.464 168.383 18.464C167.551 18.464 166.804 18.6666 166.143 19.072C165.503 19.4773 164.991 20.0426 164.607 20.768C164.244 21.4933 164.063 22.3253 164.063 23.264C164.063 24.2026 164.244 25.0346 164.607 25.76C164.991 26.4853 165.503 27.0506 166.143 27.456C166.804 27.8613 167.551 28.064 168.383 28.064C169.343 28.064 170.175 27.808 170.879 27.296C171.583 26.784 172.084 26.0906 172.383 25.216L176.543 27.04C176.223 28.064 175.668 28.9813 174.879 29.792C174.089 30.6026 173.14 31.2426 172.031 31.712C170.921 32.16 169.705 32.384 168.383 32.384Z" fill="white"/>
<path d="M141.61 32V14.528H146.09V17.984L145.834 17.216C146.24 16.1706 146.89 15.4026 147.786 14.912C148.704 14.4 149.77 14.144 150.986 14.144C152.309 14.144 153.461 14.4213 154.442 14.976C155.445 15.5306 156.224 16.3093 156.778 17.312C157.333 18.2933 157.61 19.4453 157.61 20.768V32H152.81V21.792C152.81 21.1093 152.672 20.5226 152.394 20.032C152.138 19.5413 151.765 19.1573 151.274 18.88C150.805 18.6026 150.25 18.464 149.61 18.464C148.992 18.464 148.437 18.6026 147.946 18.88C147.456 19.1573 147.072 19.5413 146.794 20.032C146.538 20.5226 146.41 21.1093 146.41 21.792V32H141.61Z" fill="white"/>
<path d="M126.04 39.04C125.528 39.04 125.027 38.9973 124.536 38.912C124.067 38.8267 123.651 38.688 123.288 38.496V34.56C123.587 34.6453 123.939 34.72 124.344 34.784C124.75 34.848 125.123 34.88 125.464 34.88C126.403 34.88 127.075 34.656 127.48 34.208C127.886 33.7813 128.216 33.2907 128.472 32.736L129.656 30.016L129.592 34.016L121.912 14.528H127.064L132.152 28.384H130.232L135.32 14.528H140.472L132.984 33.632C132.515 34.8267 131.939 35.8293 131.256 36.64C130.574 37.4507 129.795 38.048 128.92 38.432C128.067 38.8373 127.107 39.04 126.04 39.04Z" fill="white"/>
<path d="M112.586 32.384C111.092 32.384 109.684 32.1173 108.362 31.584C107.06 31.0293 105.93 30.2507 104.97 29.248C104.031 28.2453 103.327 27.0613 102.858 25.696L106.922 23.872C107.519 25.1733 108.34 26.1973 109.386 26.944C110.452 27.6907 111.626 28.064 112.906 28.064C113.588 28.064 114.175 27.9573 114.666 27.744C115.156 27.5307 115.54 27.2427 115.818 26.88C116.095 26.496 116.234 26.048 116.234 25.536C116.234 24.9813 116.063 24.512 115.722 24.128C115.38 23.7227 114.847 23.4027 114.122 23.168L109.45 21.632C107.551 21.0133 106.122 20.1387 105.162 19.008C104.202 17.856 103.722 16.48 103.722 14.88C103.722 13.472 104.063 12.2347 104.746 11.168C105.45 10.1013 106.42 9.26933 107.658 8.672C108.916 8.07467 110.356 7.776 111.978 7.776C113.407 7.776 114.73 8.02133 115.946 8.512C117.162 9.00267 118.207 9.696 119.082 10.592C119.978 11.488 120.65 12.5653 121.098 13.824L117.066 15.648C116.618 14.5387 115.946 13.6747 115.05 13.056C114.154 12.416 113.13 12.096 111.978 12.096C111.316 12.096 110.73 12.2027 110.218 12.416C109.706 12.6293 109.311 12.9387 109.034 13.344C108.756 13.728 108.618 14.176 108.618 14.688C108.618 15.2427 108.799 15.7333 109.162 16.16C109.524 16.5653 110.068 16.8853 110.794 17.12L115.37 18.592C117.29 19.2107 118.719 20.0747 119.658 21.184C120.618 22.2933 121.098 23.648 121.098 25.248C121.098 26.6347 120.735 27.872 120.01 28.96C119.284 30.0267 118.282 30.8693 117.002 31.488C115.743 32.0853 114.271 32.384 112.586 32.384Z" fill="white"/>
<path d="M74.803 32V14.528H79.283V18.784L78.803 18.08C79.059 16.736 79.6776 15.744 80.659 15.104C81.6403 14.464 82.8136 14.144 84.179 14.144C85.6296 14.144 86.899 14.5173 87.987 15.264C89.0963 15.9893 89.7896 16.9706 90.067 18.208L88.691 18.336C89.267 16.9066 90.0883 15.8506 91.155 15.168C92.2216 14.4853 93.4696 14.144 94.899 14.144C96.1576 14.144 97.267 14.4213 98.227 14.976C99.2083 15.5306 99.9763 16.3093 100.531 17.312C101.086 18.2933 101.363 19.4453 101.363 20.768V32H96.563V21.792C96.563 21.1093 96.435 20.5226 96.179 20.032C95.9443 19.5413 95.603 19.1573 95.155 18.88C94.707 18.6026 94.163 18.464 93.523 18.464C92.9043 18.464 92.3603 18.6026 91.891 18.88C91.443 19.1573 91.091 19.5413 90.835 20.032C90.6003 20.5226 90.483 21.1093 90.483 21.792V32H85.683V21.792C85.683 21.1093 85.555 20.5226 85.299 20.032C85.0643 19.5413 84.723 19.1573 84.275 18.88C83.827 18.6026 83.283 18.464 82.643 18.464C82.0243 18.464 81.4803 18.6026 81.011 18.88C80.563 19.1573 80.211 19.5413 79.955 20.032C79.7203 20.5226 79.603 21.1093 79.603 21.792V32H74.803Z" fill="#0F6EFF"/>
<path d="M62.5148 32.384C61.2562 32.384 60.1682 32.1813 59.2508 31.776C58.3335 31.3706 57.6295 30.7946 57.1388 30.048C56.6482 29.28 56.4028 28.3733 56.4028 27.328C56.4028 26.3466 56.6268 25.4826 57.0748 24.736C57.5228 23.968 58.2055 23.328 59.1228 22.816C60.0615 22.304 61.2242 21.9413 62.6108 21.728L67.9548 20.864V24.384L63.4748 25.184C62.7922 25.312 62.2695 25.536 61.9068 25.856C61.5442 26.1546 61.3628 26.592 61.3628 27.168C61.3628 27.7013 61.5655 28.1173 61.9708 28.416C62.3762 28.7146 62.8775 28.864 63.4748 28.864C64.2642 28.864 64.9575 28.6933 65.5548 28.352C66.1522 28.0106 66.6108 27.552 66.9308 26.976C67.2722 26.3786 67.4428 25.728 67.4428 25.024V20.48C67.4428 19.8186 67.1762 19.264 66.6428 18.816C66.1308 18.368 65.4268 18.144 64.5308 18.144C63.6775 18.144 62.9202 18.3786 62.2588 18.848C61.6188 19.3173 61.1495 19.936 60.8508 20.704L57.0108 18.88C57.3522 17.8986 57.8962 17.056 58.6428 16.352C59.3895 15.648 60.2855 15.104 61.3308 14.72C62.3762 14.336 63.5175 14.144 64.7548 14.144C66.2268 14.144 67.5282 14.4106 68.6588 14.944C69.7895 15.4773 70.6642 16.224 71.2828 17.184C71.9228 18.1226 72.2428 19.2213 72.2428 20.48V32H67.7628V29.184L68.8508 28.992C68.3388 29.76 67.7735 30.4 67.1548 30.912C66.5362 31.4027 65.8428 31.7653 65.0748 32C64.3068 32.256 63.4535 32.384 62.5148 32.384Z" fill="#0F6EFF"/>
<path d="M40.2938 32V8.15997H56.6138V12.48H45.2538V18.528H55.0138V22.848H45.2538V32H40.2938Z" fill="#0F6EFF"/>
<defs>
<linearGradient id="paint0_linear_135_601" x1="15.9995" y1="24.7998" x2="15.9995" y2="39.3998" gradientUnits="userSpaceOnUse">
<stop stop-color="#E8F1FF"/>
<stop offset="1" stop-color="#0F6EFF"/>
</linearGradient>
<linearGradient id="paint1_linear_135_601" x1="15.9996" y1="10.4004" x2="15.9996" y2="23.2004" gradientUnits="userSpaceOnUse">
<stop stop-color="white"/>
<stop offset="1" stop-color="#E8F1FF"/>
</linearGradient>
<clipPath id="clip0_135_601">
<rect width="32" height="40" fill="white"/>
</clipPath>
</defs>
</svg>
