<svg width="133" height="30" viewBox="0 0 133 30" fill="none" xmlns="http://www.w3.org/2000/svg">
<path d="M12 1C18.6274 1 24 6.37258 24 13C24 16.5244 22.48 19.6933 20.0605 21.8887L12 29.9502L3.93848 21.8887C1.51931 19.6933 0 16.5241 0 13C0 6.37258 5.37258 1 12 1Z" fill="#0F6EFF"/>
<path d="M19.7425 22.2071C18.7257 21.1903 17.5186 20.3837 16.19 19.8335C14.8615 19.2832 13.4376 18.9999 11.9997 18.9999C10.5617 18.9999 9.13779 19.2832 7.80927 19.8335C6.48076 20.3837 5.27364 21.1903 4.25684 22.2071L11.9997 29.9499L19.7425 22.2071Z" fill="url(#paint0_linear_135_628)"/>
<circle cx="11.9997" cy="13.0004" r="4.8" fill="url(#paint1_linear_135_628)"/>
<path d="M126.409 24.288C125.097 24.288 123.913 23.992 122.857 23.4C121.817 22.792 120.985 21.968 120.361 20.928C119.753 19.888 119.449 18.72 119.449 17.424C119.449 16.128 119.753 14.968 120.361 13.944C120.969 12.904 121.801 12.088 122.857 11.496C123.913 10.904 125.097 10.608 126.409 10.608C127.385 10.608 128.289 10.776 129.121 11.112C129.953 11.448 130.665 11.92 131.257 12.528C131.849 13.12 132.273 13.824 132.529 14.64L129.409 15.984C129.185 15.328 128.801 14.808 128.257 14.424C127.729 14.04 127.113 13.848 126.409 13.848C125.785 13.848 125.225 14 124.729 14.304C124.249 14.608 123.865 15.032 123.577 15.576C123.305 16.12 123.169 16.744 123.169 17.448C123.169 18.152 123.305 18.776 123.577 19.32C123.865 19.864 124.249 20.288 124.729 20.592C125.225 20.896 125.785 21.048 126.409 21.048C127.129 21.048 127.753 20.856 128.281 20.472C128.809 20.088 129.185 19.568 129.409 18.912L132.529 20.28C132.289 21.048 131.873 21.736 131.281 22.344C130.689 22.952 129.977 23.432 129.145 23.784C128.313 24.12 127.401 24.288 126.409 24.288Z" fill="white"/>
<path d="M106.33 24V10.896H109.69V13.488L109.498 12.912C109.802 12.128 110.29 11.552 110.962 11.184C111.65 10.8 112.45 10.608 113.362 10.608C114.354 10.608 115.218 10.816 115.954 11.232C116.706 11.648 117.29 12.232 117.706 12.984C118.122 13.72 118.33 14.584 118.33 15.576V24H114.73V16.344C114.73 15.832 114.626 15.392 114.418 15.024C114.226 14.656 113.946 14.368 113.578 14.16C113.226 13.952 112.81 13.848 112.33 13.848C111.866 13.848 111.45 13.952 111.082 14.16C110.714 14.368 110.426 14.656 110.218 15.024C110.026 15.392 109.93 15.832 109.93 16.344V24H106.33Z" fill="white"/>
<path d="M94.6522 29.28C94.2682 29.28 93.8922 29.248 93.5242 29.184C93.1722 29.12 92.8602 29.016 92.5882 28.872V25.92C92.8122 25.984 93.0761 26.04 93.3801 26.088C93.6841 26.136 93.9642 26.16 94.2202 26.16C94.9242 26.16 95.4282 25.992 95.7322 25.656C96.0362 25.336 96.2842 24.968 96.4762 24.552L97.3642 22.512L97.3162 25.512L91.5562 10.896H95.4202L99.2362 21.288H97.7962L101.612 10.896H105.476L99.8602 25.224C99.5082 26.12 99.0762 26.872 98.5642 27.48C98.0522 28.088 97.4681 28.536 96.8121 28.824C96.1721 29.128 95.4522 29.28 94.6522 29.28Z" fill="white"/>
<path d="M84.5611 24.288C83.4411 24.288 82.3851 24.088 81.3931 23.688C80.4171 23.272 79.5691 22.688 78.8491 21.936C78.1451 21.184 77.6171 20.296 77.2651 19.272L80.3131 17.904C80.7611 18.88 81.3771 19.648 82.1611 20.208C82.9611 20.768 83.8411 21.048 84.8011 21.048C85.3131 21.048 85.7531 20.968 86.1211 20.808C86.4891 20.648 86.7771 20.432 86.9851 20.16C87.1931 19.872 87.2971 19.536 87.2971 19.152C87.2971 18.736 87.1691 18.384 86.9131 18.096C86.6571 17.792 86.2571 17.552 85.7131 17.376L82.2091 16.224C80.7851 15.76 79.7131 15.104 78.9931 14.256C78.2731 13.392 77.9131 12.36 77.9131 11.16C77.9131 10.104 78.1691 9.17603 78.6811 8.37603C79.2091 7.57603 79.9371 6.95203 80.8651 6.50403C81.8091 6.05603 82.8891 5.83203 84.1051 5.83203C85.1771 5.83203 86.1691 6.01603 87.0811 6.38403C87.9931 6.75203 88.7771 7.27203 89.4331 7.94403C90.1051 8.61603 90.6091 9.42403 90.9451 10.368L87.9211 11.736C87.5851 10.904 87.0811 10.256 86.4091 9.79203C85.7371 9.31203 84.9691 9.07203 84.1051 9.07203C83.6091 9.07203 83.1691 9.15203 82.7851 9.31203C82.4011 9.47203 82.1051 9.70403 81.8971 10.008C81.6891 10.296 81.5851 10.632 81.5851 11.016C81.5851 11.432 81.7211 11.8 81.9931 12.12C82.2651 12.424 82.6731 12.664 83.2171 12.84L86.6491 13.944C88.0891 14.408 89.1611 15.056 89.8651 15.888C90.5851 16.72 90.9451 17.736 90.9451 18.936C90.9451 19.976 90.6731 20.904 90.1291 21.72C89.5851 22.52 88.8331 23.152 87.8731 23.616C86.9291 24.064 85.8251 24.288 84.5611 24.288Z" fill="white"/>
<path d="M56.2239 24V10.896H59.5839V14.088L59.2239 13.56C59.4159 12.552 59.8799 11.808 60.6159 11.328C61.3519 10.848 62.2319 10.608 63.2559 10.608C64.3439 10.608 65.2959 10.888 66.1119 11.448C66.9439 11.992 67.4639 12.728 67.6719 13.656L66.6399 13.752C67.0719 12.68 67.6879 11.888 68.4879 11.376C69.2879 10.864 70.2239 10.608 71.2959 10.608C72.2399 10.608 73.0719 10.816 73.7919 11.232C74.5279 11.648 75.1039 12.232 75.5199 12.984C75.9359 13.72 76.1439 14.584 76.1439 15.576V24H72.5439V16.344C72.5439 15.832 72.4479 15.392 72.2559 15.024C72.0799 14.656 71.8239 14.368 71.4879 14.16C71.1519 13.952 70.7439 13.848 70.2639 13.848C69.7999 13.848 69.3919 13.952 69.0399 14.16C68.7039 14.368 68.4399 14.656 68.2479 15.024C68.0719 15.392 67.9839 15.832 67.9839 16.344V24H64.3839V16.344C64.3839 15.832 64.2879 15.392 64.0959 15.024C63.9199 14.656 63.6639 14.368 63.3279 14.16C62.9919 13.952 62.5839 13.848 62.1039 13.848C61.6399 13.848 61.2319 13.952 60.8799 14.16C60.5439 14.368 60.2799 14.656 60.0879 15.024C59.9119 15.392 59.8239 15.832 59.8239 16.344V24H56.2239Z" fill="#0F6EFF"/>
<path d="M47.0078 24.288C46.0638 24.288 45.2478 24.136 44.5598 23.832C43.8718 23.528 43.3438 23.096 42.9758 22.536C42.6078 21.96 42.4238 21.28 42.4238 20.496C42.4238 19.76 42.5918 19.112 42.9278 18.552C43.2638 17.976 43.7758 17.496 44.4638 17.112C45.1678 16.728 46.0398 16.456 47.0798 16.296L51.0878 15.648V18.288L47.7278 18.888C47.2158 18.984 46.8238 19.152 46.5518 19.392C46.2798 19.616 46.1438 19.944 46.1438 20.376C46.1438 20.776 46.2958 21.088 46.5998 21.312C46.9038 21.536 47.2798 21.648 47.7278 21.648C48.3198 21.648 48.8398 21.52 49.2878 21.264C49.7358 21.008 50.0798 20.664 50.3198 20.232C50.5758 19.784 50.7038 19.296 50.7038 18.768V15.36C50.7038 14.864 50.5038 14.448 50.1038 14.112C49.7198 13.776 49.1918 13.608 48.5198 13.608C47.8798 13.608 47.3118 13.784 46.8158 14.136C46.3358 14.488 45.9838 14.952 45.7598 15.528L42.8798 14.16C43.1358 13.424 43.5438 12.792 44.1038 12.264C44.6638 11.736 45.3358 11.328 46.1198 11.04C46.9038 10.752 47.7598 10.608 48.6878 10.608C49.7918 10.608 50.7678 10.808 51.6158 11.208C52.4638 11.608 53.1198 12.168 53.5838 12.888C54.0638 13.592 54.3038 14.416 54.3038 15.36V24H50.9438V21.888L51.7598 21.744C51.3758 22.32 50.9518 22.8 50.4878 23.184C50.0238 23.552 49.5038 23.824 48.9278 24C48.3518 24.192 47.7118 24.288 47.0078 24.288Z" fill="#0F6EFF"/>
<path d="M30.342 24V6.12H42.582V9.36H34.062V13.896H41.382V17.136H34.062V24H30.342Z" fill="#0F6EFF"/>
<defs>
<linearGradient id="paint0_linear_135_628" x1="11.9997" y1="18.9999" x2="11.9997" y2="29.9499" gradientUnits="userSpaceOnUse">
<stop stop-color="#E8F1FF"/>
<stop offset="1" stop-color="#0F6EFF"/>
</linearGradient>
<linearGradient id="paint1_linear_135_628" x1="11.9997" y1="8.20038" x2="11.9997" y2="17.8004" gradientUnits="userSpaceOnUse">
<stop stop-color="white"/>
<stop offset="1" stop-color="#E8F1FF"/>
</linearGradient>
</defs>
</svg>
