<svg width="24" height="24" viewBox="0 0 24 24" fill="none" xmlns="http://www.w3.org/2000/svg">
<path fill-rule="evenodd" clip-rule="evenodd" d="M12.8005 1.25C16.75 1.25018 16.7497 3.44027 16.7497 5.2002V5.25977H17.0007C19.1705 5.25983 20.6606 5.7503 21.5505 6.74023C22.5902 7.90013 22.5599 9.44985 22.4499 10.5098L21.6999 18.5C21.4799 20.5999 20.6203 22.7499 16.0007 22.75H8.00072C3.38072 22.75 2.52052 20.5998 2.30052 18.5098L1.55052 10.5C1.44053 9.45009 1.41022 7.9002 2.44994 6.74023C3.34994 5.74023 4.84072 5.25977 7.00072 5.25977H7.24974V5.2002C7.24974 3.44021 7.25007 1.25004 11.1999 1.25H12.8005ZM20.7615 12.4824C18.9153 13.5766 16.8657 14.3216 14.7273 14.6748C14.6415 15.6476 14.2076 16.75 11.9997 16.75C9.79146 16.7499 9.35683 15.6534 9.27123 14.6934C7.16286 14.3711 5.11052 13.6416 3.24681 12.5557L3.79076 18.3604C3.96079 19.9402 4.39101 21.25 8.00072 21.25H16.0007C19.6003 21.2499 20.0407 19.9395 20.2107 18.3496L20.7615 12.4824ZM10.7497 14.0303C10.7497 15.06 10.7502 15.25 11.9997 15.25C13.2497 15.25 13.2497 15.0895 13.2497 14.0195V12.75H10.7497V14.0303ZM7.00072 6.75C5.31072 6.75 4.15029 7.08023 3.56029 7.74023C3.07043 8.28019 2.91084 9.1099 3.04076 10.3496L3.07103 10.6777C4.93934 11.9443 7.05669 12.7942 9.24974 13.1699V13C9.24974 11.5901 9.59003 11.25 10.9997 11.25H12.9997C14.4097 11.25 14.7497 11.59 14.7497 13V13.1396C16.9752 12.7381 19.0972 11.8598 20.9392 10.5791L20.9607 10.3604C21.0907 9.11041 20.9301 8.28024 20.4402 7.74023C19.8502 7.08029 18.6905 6.75006 17.0007 6.75H7.00072ZM11.1999 2.75C8.75007 2.75002 8.74974 3.42022 8.74974 5.2002V5.25977H15.2497V5.2002C15.2497 3.42031 15.25 2.75009 12.8005 2.75H11.1999Z" fill="url(#paint0_linear_104_167)"/>
<defs>
<linearGradient id="paint0_linear_104_167" x1="-5.92777" y1="8.85147" x2="9.27103" y2="23.6995" gradientUnits="userSpaceOnUse">
<stop stop-color="#0F6EFF" style="stop-color:#0F6EFF;stop-color:color(display-p3 0.0588 0.4314 1.0000);stop-opacity:1;"/>
<stop offset="1" stop-color="#00C7BE" style="stop-color:#00C7BE;stop-color:color(display-p3 0.0000 0.7804 0.7451);stop-opacity:1;"/>
</linearGradient>
</defs>
</svg>
