<svg width="24" height="24" viewBox="0 0 24 24" fill="none" xmlns="http://www.w3.org/2000/svg">
<path d="M15.8156 6.78154C17.4233 6.94664 18.4642 8.22921 18.4054 9.97393C18.3914 10.3799 18.0584 10.6995 17.6564 10.6995H17.631C17.2171 10.6853 16.8924 10.338 16.9064 9.92412C16.9383 8.97323 16.4732 8.35673 15.6622 8.27373C15.2503 8.23071 14.9504 7.8624 14.9923 7.45049C15.0353 7.03849 15.4116 6.74754 15.8156 6.78154Z" fill="url(#paint0_linear_104_171)"/>
<path fill-rule="evenodd" clip-rule="evenodd" d="M6.34192 3.04912C8.37291 2.39312 10.5296 2.89537 11.9806 4.28936C13.5466 2.69677 15.9197 2.4932 17.6515 3.04815C21.7172 4.35831 22.9919 9.04614 21.8419 12.638C20.0858 18.2218 14.073 21.2356 12.0021 21.2356C9.94603 21.2355 3.95335 18.2228 2.1593 12.639L2.15833 12.638C1.00736 9.04513 2.28019 4.35627 6.34192 3.04912ZM17.1925 4.47588C15.7426 4.01189 13.6941 4.24767 12.6281 5.86553C12.4921 6.07053 12.2637 6.19647 12.0177 6.20147C11.771 6.19136 11.5396 6.09157 11.3947 5.89287C10.2257 4.27887 8.19288 4.02688 6.80188 4.47588C3.62012 5.50102 2.65607 9.27309 3.58704 12.181C5.23403 17.3057 10.8169 19.7355 12.0021 19.7356C13.1961 19.7356 18.8012 17.3068 20.4122 12.1839C21.3432 9.27402 20.3773 5.50203 17.1925 4.47588Z" fill="url(#paint1_linear_104_171)"/>
<defs>
<linearGradient id="paint0_linear_104_171" x1="-5.49228" y1="9.29484" x2="7.49908" y2="23.708" gradientUnits="userSpaceOnUse">
<stop stop-color="#F857A6" style="stop-color:#F857A6;stop-color:color(display-p3 0.9725 0.3412 0.6510);stop-opacity:1;"/>
<stop offset="1" stop-color="#FF5858" style="stop-color:#FF5858;stop-color:color(display-p3 1.0000 0.3451 0.3451);stop-opacity:1;"/>
</linearGradient>
<linearGradient id="paint1_linear_104_171" x1="-5.49228" y1="9.29484" x2="7.49908" y2="23.708" gradientUnits="userSpaceOnUse">
<stop stop-color="#F857A6" style="stop-color:#F857A6;stop-color:color(display-p3 0.9725 0.3412 0.6510);stop-opacity:1;"/>
<stop offset="1" stop-color="#FF5858" style="stop-color:#FF5858;stop-color:color(display-p3 1.0000 0.3451 0.3451);stop-opacity:1;"/>
</linearGradient>
</defs>
</svg>
