<svg width="24" height="24" viewBox="0 0 24 24" fill="none" xmlns="http://www.w3.org/2000/svg">
<path fill-rule="evenodd" clip-rule="evenodd" d="M9.66584 1.25098C9.67039 1.25089 9.67494 1.25 9.67951 1.25H17.3602C20.3 1.25008 21.6699 2.4801 22.0799 5.5L22.3602 8.28027C22.4606 9.26857 22.2221 10.2134 21.6903 10.9941C21.7136 11.066 21.7293 11.1417 21.7293 11.2207V15.71C21.7393 20.6398 19.6298 22.7499 14.7 22.75H9.29963C4.35965 22.75 2.25959 20.6399 2.25959 15.71V11.2207C2.25959 11.1564 2.27028 11.094 2.28596 11.0342C1.73495 10.246 1.48753 9.28529 1.58967 8.28027L1.86017 5.53027C2.28016 2.48036 3.64984 1.25007 6.58967 1.25H9.63947C9.64814 1.25 9.65721 1.25067 9.66584 1.25098ZM11.9998 17.75C10.7399 17.75 10.2498 18.24 10.2498 19.5V21.25H13.7498V19.5C13.7498 18.24 13.2598 17.75 11.9998 17.75ZM8.86701 11.1143C8.10772 12.0996 6.9173 12.75 5.63947 12.75C4.96538 12.7499 4.32671 12.5988 3.75959 12.3135V15.71C3.75959 19.6111 5.07888 21.1091 8.74982 21.2393V19.5C8.74982 17.4 9.89987 16.25 11.9998 16.25C14.0998 16.25 15.2498 17.4 15.2498 19.5V21.2393C18.9129 21.1066 20.2293 19.6074 20.2293 15.71V12.292C19.6524 12.5904 19.0002 12.7499 18.3104 12.75C17.0559 12.75 15.8856 12.1232 15.1248 11.168C15.0375 11.293 14.9433 11.4149 14.8397 11.5303C14.0997 12.3201 13.0997 12.75 11.9998 12.75C10.9 12.75 9.90022 12.32 9.19025 11.5303C9.07165 11.3983 8.96412 11.2588 8.86701 11.1143ZM6.58967 2.75C4.39986 2.75005 3.66942 3.41028 3.34943 5.7002L3.0799 8.42969C2.99991 9.18957 3.22993 9.89971 3.70978 10.4297C4.18969 10.9596 4.86965 11.2499 5.63947 11.25C6.89934 11.25 8.07004 10.1903 8.19025 8.94043L8.81037 2.75H6.58967ZM15.7703 8.61035C15.7876 8.78353 15.7922 8.95498 15.7879 9.12402C16.0063 10.2922 17.1128 11.25 18.3104 11.25C19.0702 11.2499 19.7502 10.9596 20.2401 10.4297C20.7199 9.89971 20.9399 9.18957 20.8699 8.42969L20.5897 5.67969C20.2797 3.42005 19.5498 2.75006 17.3602 2.75H15.1815L15.7703 8.61035ZM9.74982 8.75977C9.67984 9.42958 9.87987 10.0596 10.2996 10.5195C11.1496 11.4595 12.85 11.4595 13.7 10.5195C14.0492 10.1286 14.2434 9.62721 14.2596 9.08984L13.6268 2.75H10.3494L9.74982 8.75977Z" fill="url(#paint0_linear_104_155)"/>
<defs>
<linearGradient id="paint0_linear_104_155" x1="-5.79233" y1="8.85147" x2="9.40266" y2="23.5627" gradientUnits="userSpaceOnUse">
<stop stop-color="#F0922A" style="stop-color:#F0922A;stop-color:color(display-p3 0.9412 0.5725 0.1647);stop-opacity:1;"/>
<stop offset="1" stop-color="#EFC03A" style="stop-color:#EFC03A;stop-color:color(display-p3 0.9373 0.7529 0.2275);stop-opacity:1;"/>
</linearGradient>
</defs>
</svg>
