<svg width="24" height="24" viewBox="0 0 24 24" fill="none" xmlns="http://www.w3.org/2000/svg">
<defs><linearGradient id="g" x1="0%" y1="0%" x2="100%" y2="100%"><stop offset="0%" stop-color="#4F5BD5"/><stop offset="100%" stop-color="#A44FD5"/></linearGradient></defs>
<path d="M6.64355 13.7119C8.65599 13.7119 10.2881 15.3441 10.2881 17.3564C10.2878 19.3686 8.65583 21 6.64355 21C4.63141 20.9999 3.00025 19.3685 3 17.3564C3 15.3441 4.63125 13.7121 6.64355 13.7119ZM17.3555 13.7119C19.3679 13.7119 21 15.3441 21 17.3564C20.9998 19.3686 19.3677 21 17.3555 21C15.3433 20.9998 13.7122 19.3685 13.7119 17.3564C13.7119 15.3442 15.3432 13.7121 17.3555 13.7119ZM6.64355 3C8.6559 3 10.2879 4.63125 10.2881 6.64355C10.2881 8.65598 8.65599 10.2881 6.64355 10.2881C4.63125 10.2879 3 8.65589 3 6.64355C3.00015 4.63134 4.63134 3.00014 6.64355 3ZM17.3555 3C19.3678 3 20.9999 4.63125 21 6.64355C21 8.65598 19.3679 10.2881 17.3555 10.2881C15.3432 10.2879 13.7119 8.65584 13.7119 6.64355C13.7121 4.63138 15.3433 3.00021 17.3555 3Z" fill="url(#g)"/>
</svg>
