<svg width="24" height="24" viewBox="0 0 24 24" fill="none" xmlns="http://www.w3.org/2000/svg">
<defs><linearGradient id="g" x1="0%" y1="0%" x2="100%" y2="100%"><stop offset="0%" stop-color="#F857A6"/><stop offset="100%" stop-color="#FF5858"/></linearGradient></defs>
<path fill-rule="evenodd" clip-rule="evenodd" d="M17.6584 10.6955H17.6334C17.2192 10.6805 16.8941 10.3338 16.9081 9.91905C16.9402 8.96625 16.475 8.34808 15.6638 8.26492C15.2517 8.22284 14.9516 7.85414 14.9936 7.44136C15.0366 7.02958 15.4067 6.72601 15.8168 6.77009C17.4253 6.9344 18.4666 8.21983 18.4076 9.96915C18.3936 10.3759 18.0605 10.6955 17.6584 10.6955ZM17.5763 3.26746C15.8558 2.71641 13.4742 2.94484 11.9877 4.63404C10.4263 2.95687 8.12562 2.71341 6.41713 3.26846C2.50101 4.53085 1.27966 9.07546 2.39398 12.561C4.15248 18.0424 9.99917 21 12.0017 21C13.7893 21 19.868 18.0985 21.6065 12.561C22.7208 9.07646 21.4965 4.53185 17.5763 3.26746Z" fill="url(#g)"/>
</svg>
