<svg width="24" height="24" viewBox="0 0 24 24" fill="none" xmlns="http://www.w3.org/2000/svg">
<defs><linearGradient id="g" x1="0%" y1="0%" x2="100%" y2="100%"><stop offset="0%" stop-color="#A18CD1"/><stop offset="100%" stop-color="#FBC2EB"/></linearGradient></defs>
<path d="M11.5205 9.32031C15.1002 9.32057 18.49 12.19 19.0801 15.7197C19.3501 17.3797 18.9504 18.9604 17.9404 20.1504C16.9304 21.3404 15.4498 22 13.7598 22H9.08008C7.58008 22 6.19973 21.4098 5.21973 20.3398C4.2299 19.2699 3.74989 17.8495 3.87988 16.3496C4.21011 12.4698 7.63066 9.32031 11.5205 9.32031ZM20.5498 9.03027C21.6268 9.03027 22.5 9.90351 22.5 10.9805C22.4998 12.0573 21.6267 12.9297 20.5498 12.9297C19.473 12.9296 18.5998 12.0572 18.5996 10.9805C18.5996 9.90357 19.4729 9.03037 20.5498 9.03027ZM3.94043 6.10059C5.28778 6.10082 6.37985 7.19264 6.37988 8.54004C6.37988 9.88747 5.2878 10.9802 3.94043 10.9805C2.59286 10.9805 1.5 9.88761 1.5 8.54004C1.50003 7.1925 2.59288 6.10059 3.94043 6.10059ZM16.9404 4.15039C18.2878 4.15062 19.3799 5.24244 19.3799 6.58984C19.3799 7.93727 18.2878 9.03004 16.9404 9.03027C15.5928 9.03027 14.5 7.93741 14.5 6.58984C14.5 5.2423 15.5928 4.15039 16.9404 4.15039ZM10.2803 2C11.8982 2.00016 13.2098 3.31174 13.21 4.92969C13.21 6.54778 11.8983 7.86019 10.2803 7.86035C8.66208 7.86035 7.34961 6.54788 7.34961 4.92969C7.34978 3.31164 8.66219 2 10.2803 2Z" fill="url(#g)"/>
</svg>
