<svg width="24" height="24" viewBox="0 0 24 24" fill="none" xmlns="http://www.w3.org/2000/svg">
<defs><linearGradient id="g" x1="0%" y1="0%" x2="100%" y2="100%"><stop offset="0%" stop-color="#F0922A"/><stop offset="100%" stop-color="#EFC03A"/></linearGradient></defs>
<path d="M18.9499 8.22949L19.9597 8.39941C21.0196 8.5794 21.7296 9.05988 21.9597 9.75977C22.1797 10.4598 21.8799 11.2703 21.1199 12.0303L18.6999 14.46C18.34 14.82 18.1405 15.51 18.2605 16L18.9499 19.0098C19.2399 20.2596 19.0599 21.1993 18.4402 21.6494C18.1902 21.8294 17.8898 21.9199 17.5398 21.9199C17.0299 21.9199 16.4301 21.7297 15.7703 21.3398L12.8396 19.5996C12.3796 19.3299 11.6198 19.3297 11.1599 19.5996L8.23022 21.3398C7.12022 21.9898 6.1703 22.0994 5.5603 21.6494C5.33044 21.4795 5.16053 21.25 5.05053 20.9502L17.2097 8.79004C17.6697 8.33008 18.32 8.11956 18.9499 8.22949ZM11.9998 2C12.7397 2 13.4197 2.55013 13.9197 3.54004L15.6404 6.99023C15.7704 7.25006 16.04 7.49999 16.3298 7.66992L5.5603 18.4404C5.42028 18.5802 5.18047 18.4499 5.22046 18.25L5.73999 16C5.84997 15.5101 5.65041 14.81 5.30053 14.46L2.86987 12.0303C2.10987 11.2703 1.81003 10.4598 2.03003 9.75977C2.26008 9.0599 2.9702 8.58039 4.03003 8.40039L7.15014 7.87988C7.60006 7.79987 8.15004 7.40015 8.3601 6.99023L10.0798 3.54004C10.5798 2.55019 11.2599 2.00017 11.9998 2Z" fill="url(#g)"/>
</svg>
