<svg width="24" height="24" viewBox="0 0 24 24" fill="none" xmlns="http://www.w3.org/2000/svg">
<defs><linearGradient id="g" x1="0%" y1="0%" x2="100%" y2="100%"><stop offset="0%" stop-color="#2DD16A"/><stop offset="100%" stop-color="#1EDEC2"/></linearGradient></defs>
<path d="M9.48828 13.9551C13.5477 13.9551 16.9775 16.1217 16.9775 18.6855C16.9773 21.9997 11.3406 22 9.48828 22C6.27317 22 2 21.6576 2 18.7051C2.00028 16.1304 5.42922 13.9552 9.48828 13.9551ZM16.1191 12.3086C19.3056 12.3086 22 14.0269 22 16.0664C21.9997 17.774 20.1968 18.3864 18.5166 18.6074C18.4652 16.0458 16.1807 13.8462 12.9434 12.9219C13.8654 12.5401 14.9614 12.3086 16.1191 12.3086ZM9.4873 2C12.2363 2 14.4717 4.19219 14.4717 6.8877C14.4717 9.58218 12.2363 11.7744 9.4873 11.7744H9.45703C8.12817 11.7694 6.88173 11.2582 5.94629 10.335C5.01086 9.41171 4.49978 8.18675 4.50488 6.88574C4.50488 4.19229 6.74044 2.00007 9.4873 2ZM16.1191 3.10645C18.3015 3.10645 20.0742 4.84445 20.0742 6.98438C20.074 9.12411 18.3014 10.8623 16.1191 10.8623H16.0889C15.6278 10.8623 15.1764 10.7816 14.7666 10.6309C15.5452 9.57606 16.0068 8.28015 16.0068 6.88379C16.0068 5.55764 15.5966 4.32163 14.8896 3.29688C15.2789 3.17633 15.6889 3.10646 16.1191 3.10645Z" fill="url(#g)"/>
</svg>
