<svg width="24" height="24" viewBox="0 0 24 24" fill="none" xmlns="http://www.w3.org/2000/svg">
<defs><linearGradient id="g" x1="0%" y1="0%" x2="100%" y2="100%"><stop offset="0%" stop-color="#9B87F5"/><stop offset="100%" stop-color="#7EC8E3"/></linearGradient></defs>
<path d="M2.02445 12.4766C4.65777 13.8612 7.86929 14.6605 11.2276 14.7676V16.8945C11.2277 17.3013 11.5737 17.6318 12 17.6318C12.4262 17.6317 12.7724 17.3012 12.7725 16.8945V14.7686C16.1285 14.6673 19.3393 13.8756 21.9766 12.499C21.991 12.8046 22 13.1201 22 13.4482C22 19.7627 19.3827 21.9999 12 22C4.61717 22 2.00008 19.7628 2.00004 13.4482C2.00004 13.1123 2.00901 12.7899 2.02445 12.4766ZM13.2364 2C14.8314 2.00025 16.1299 3.33953 16.1299 4.98633V5.2373C19.5416 5.90063 21.2561 7.60621 21.7998 10.8125C19.1151 12.3857 15.6435 13.2549 12.0205 13.2578C8.3904 13.2548 4.90953 12.3829 2.22269 10.8027C2.21654 10.7989 2.20936 10.7988 2.20219 10.7949C2.75006 7.60037 4.46366 5.89967 7.87016 5.2373V4.98633C7.87017 3.33937 9.16947 2 10.7647 2H13.2364ZM10.7647 3.47363C10.0211 3.47363 9.41509 4.15205 9.41508 4.98633V5.00977C10.2029 4.9341 11.0619 4.89649 12 4.89648C12.9372 4.89648 13.7961 4.9341 14.585 5.00977V4.98633C14.585 4.15222 13.9797 3.47391 13.2364 3.47363H10.7647Z" fill="url(#g)"/>
</svg>
