<svg width="24" height="24" viewBox="0 0 24 24" fill="none" xmlns="http://www.w3.org/2000/svg">
<path fill-rule="evenodd" clip-rule="evenodd" d="M1.48454 10.1123L5.12235 3.5123C5.79054 2.30002 7.04748 1.5498 8.4104 1.5498H15.5897C16.9525 1.5498 18.2095 2.30002 18.8778 3.5123L22.5156 10.1123C23.1615 11.2842 23.1615 12.7153 22.5156 13.8873L18.8778 20.4873C18.2095 21.6996 16.9525 22.4498 15.5897 22.4498H8.4104C7.04748 22.4498 5.79054 21.6996 5.12235 20.4873L1.48454 13.8873C0.838568 12.7153 0.838568 11.2842 1.48454 10.1123ZM2.89371 10.9212L6.53152 4.32123C6.91334 3.62849 7.63159 3.1998 8.4104 3.1998H15.5897C16.3684 3.1998 17.0867 3.62849 17.4686 4.32123L21.1064 10.9212C21.4755 11.5909 21.4755 12.4086 21.1064 13.0783L17.4686 19.6783C17.0867 20.3711 16.3684 20.7998 15.5897 20.7998H8.4104C7.63159 20.7998 6.91334 20.3711 6.53152 19.6783L2.89371 13.0783C2.52458 12.4086 2.52458 11.5909 2.89371 10.9212Z" fill="black" style="fill:black;fill-opacity:1;"/>
<path fill-rule="evenodd" clip-rule="evenodd" d="M12 9.525C10.6607 9.525 9.57481 10.6331 9.57481 12C9.57481 13.3668 10.6607 14.475 12 14.475C13.3394 14.475 14.4252 13.3668 14.4252 12C14.4252 10.6331 13.3394 9.525 12 9.525ZM7.95801 12C7.95801 9.72182 9.76768 7.875 12 7.875C14.2323 7.875 16.0421 9.72182 16.0421 12C16.0421 14.2782 14.2323 16.125 12 16.125C9.76768 16.125 7.95801 14.2782 7.95801 12Z" fill="black" style="fill:black;fill-opacity:1;"/>
</svg>
