<svg fill="none" height="24" viewBox="0 0 25 24" width="25" xmlns="http://www.w3.org/2000/svg"><g clip-rule="evenodd" fill="rgb(0,0,0)" fill-rule="evenodd"><path d="m10.0332 14.0305c-4.10402 0-7.57202 2.249-7.57202 4.911 0 3.036 4.321 3.387 7.57202 3.387 1.873 0 7.572 0 7.572-3.407 0-2.652-3.468-4.891-7.572-4.891z"/><path d="m10.0009 11.7365h.032c2.776 0 5.033-2.25799 5.033-5.03299s-2.257-5.032-5.033-5.032c-2.77505 0-5.03305 2.257-5.03305 5.03-.01 2.766 2.232 5.02499 5.00105 5.03499z"/><path d="m21.289 9.40448h-1.297v-1.255c0-.414-.336-.75-.75-.75s-.75.336-.75.75v1.255h-1.293c-.414 0-.75.336-.75.75002 0 .414.336.75.75.75h1.293v1.255c0 .414.336.75.75.75s.75-.336.75-.75v-1.255h1.297c.414 0 .75-.336.75-.75 0-.41402-.336-.75002-.75-.75002z"/></g></svg>