<svg width="24" height="24" viewBox="0 0 24 24" fill="none" xmlns="http://www.w3.org/2000/svg">
<path fill-rule="evenodd" clip-rule="evenodd" d="M19.7422 13.9528C18.8824 12.0989 18.9048 11.4012 18.9444 10.1334C18.9545 9.83389 18.9647 9.50847 18.9647 9.13529C18.9647 6.1727 16.8036 2 12.0005 2C7.19731 2 5.0363 6.1727 5.0363 9.13529C5.0363 9.50748 5.04645 9.83389 5.0566 10.1334C5.09619 11.4012 5.11751 12.0989 4.24864 13.9777C3.87713 14.9171 3.92179 15.7282 4.38364 16.389C5.49205 17.9792 8.69956 18.1982 12.0005 18.1982C15.3014 18.1982 18.5089 17.9792 19.6173 16.389C20.0802 15.7282 20.1248 14.9171 19.7422 13.9528Z" fill="#1B1E28"/>
<path fill-rule="evenodd" clip-rule="evenodd" d="M14.7383 19.2056C13.0828 19.3857 11.2882 19.3847 9.24794 19.2036C8.94241 19.1797 8.63993 19.3379 8.49986 19.6116C8.35877 19.8863 8.40343 20.2157 8.61151 20.4446C9.52504 21.4467 10.7269 22 11.9957 22H11.9977C13.2696 22 14.4744 21.4477 15.39 20.4446C15.6001 20.2147 15.6437 19.8803 15.4996 19.6047C15.3544 19.331 15.056 19.1777 14.7383 19.2056Z" fill="#1B1E28"/>
</svg>
