<svg width="24" height="24" viewBox="0 0 24 24" fill="none" xmlns="http://www.w3.org/2000/svg">
<path d="M12.0002 2C14.6793 2.00007 17.2553 3.14576 19.0071 5.02051C20.4498 6.68718 21.1712 8.77112 20.9651 10.8545C20.8621 11.271 20.862 11.6876 20.759 12C19.8315 16.375 14.9885 20.2292 13.0305 21.6875C12.7215 21.8958 12.4123 22 12.0002 22C11.5882 22 11.279 21.8957 10.97 21.6875C8.90897 20.2292 4.16793 16.375 3.24048 12C3.13746 11.6876 3.03447 11.271 3.03442 10.8545C2.82832 8.77112 3.54973 6.68718 4.99243 5.02051C6.74428 3.04141 9.32099 2 12.0002 2ZM16.4651 7.71094C16.078 7.38054 15.5123 7.44528 15.2004 7.85547L12.7747 11.0488C12.2767 11.7042 11.962 12.1139 11.7004 12.373C11.5776 12.4947 11.4985 12.5493 11.4534 12.5732C11.42 12.5909 11.4081 12.5908 11.4016 12.5908H11.3997C11.3931 12.5908 11.3809 12.5907 11.3479 12.5732C11.3028 12.5493 11.2246 12.4946 11.1018 12.373C10.8403 12.114 10.5256 11.7042 10.0276 11.0488L9.40161 10.2246C9.08975 9.8142 8.52299 9.74939 8.13599 10.0801C7.74894 10.4108 7.68838 11.0124 8.00024 11.4229L8.66528 12.2979C9.11215 12.8862 9.50591 13.4056 9.87231 13.7686C10.2658 14.1584 10.7555 14.4999 11.4006 14.5C12.0458 14.5 12.5354 14.1584 12.929 13.7686C13.2954 13.4056 13.69 12.8864 14.137 12.2979L16.6018 9.05371C16.9137 8.64322 16.8521 8.04171 16.4651 7.71094Z" fill="#1B1E28" style="fill:#1B1E28;fill:color(display-p3 0.1059 0.1176 0.1569);fill-opacity:1;"/>
</svg>
