<svg width="24" height="24" viewBox="0 0 24 24" fill="none" xmlns="http://www.w3.org/2000/svg">
<path fill-rule="evenodd" clip-rule="evenodd" d="M17.8392 12.284C16.8142 12.284 15.8522 12.4958 15.043 12.8549C17.8751 13.6929 19.8801 15.7003 19.9341 18.0484C21.4086 17.8551 23 17.2841 23 15.7279C23 13.8586 20.6354 12.284 17.8392 12.284Z" fill="#1B1E28"></path>
<path fill-rule="evenodd" clip-rule="evenodd" d="M17.8122 10.958H17.8302C19.7453 10.958 21.3097 9.35579 21.3097 7.40363C21.3097 5.44226 19.7453 3.84001 17.8302 3.84001C17.4525 3.84001 17.0929 3.90447 16.7512 4.01497C17.3716 4.95422 17.7313 6.08684 17.7313 7.31154C17.7403 8.55467 17.3626 9.75175 16.6523 10.7462C17.021 10.8843 17.4076 10.958 17.8122 10.958Z" fill="#1B1E28"></path>
<path fill-rule="evenodd" clip-rule="evenodd" d="M8.98299 12.8457C8.17379 12.4958 7.21175 12.284 6.19577 12.284C3.39955 12.284 1.03491 13.8586 1.03491 15.7279C1.03491 17.2841 2.61733 17.8458 4.09186 18.0484C4.13682 15.7003 6.14182 13.6929 8.98299 12.8457Z" fill="#1B1E28"></path>
<path fill-rule="evenodd" clip-rule="evenodd" d="M6.19588 10.958H6.22286C6.62745 10.958 7.01407 10.8843 7.3827 10.7462C6.69938 9.78858 6.29478 8.60071 6.29478 7.31154C6.29478 6.08684 6.65442 4.95422 7.27481 4.01497C6.93315 3.90447 6.57351 3.84001 6.19588 3.84001C4.28079 3.84001 2.72534 5.44226 2.72534 7.40363C2.72534 9.35579 4.28079 10.958 6.19588 10.958Z" fill="#1B1E28"></path>
<path fill-rule="evenodd" clip-rule="evenodd" d="M12.0125 13.7914C8.45119 13.7914 5.44189 15.7768 5.44189 18.1267C5.44189 21.1655 10.3869 21.1655 12.0125 21.1655C14.8339 21.1655 18.585 20.8524 18.585 18.1461C18.585 15.785 15.5748 13.7914 12.0125 13.7914Z" fill="#1B1E28"></path>
<path fill-rule="evenodd" clip-rule="evenodd" d="M12.0134 11.7924H12.0431C13.2075 11.7887 14.3008 11.32 15.1207 10.4738C15.9416 9.62752 16.3912 8.50503 16.3867 7.31439C16.3867 4.8438 14.4257 2.83455 12.0134 2.83455C9.60206 2.83455 7.64111 4.8438 7.64111 7.31439C7.64111 9.78314 9.60206 11.7924 12.0134 11.7924Z" fill="#1B1E28"></path>
</svg>