<svg fill="none" height="24" viewBox="0 0 24 24" width="24" xmlns="http://www.w3.org/2000/svg"><g clip-rule="evenodd" fill="rgb(0,0,0)" fill-rule="evenodd"><path d="m15.5395 3c-.9092 0-1.7812.3599-2.4241 1.00052l-4.04318 4.02873c-1.85695 1.85032-3.17431 4.16875-3.81124 6.70735l-.19537.7787c-.20262.8076.53153 1.5391 1.34203 1.3372l.78146-.1947c2.54771-.6346 4.8744-1.9473 6.7314-3.7976l4.0431-4.02874c.643-.64062 1.0042-1.5095 1.0042-2.41547 0-1.8866-1.5349-3.41599-3.4283-3.41599zm-1.1619 4.57378c.6189.61669 1.3364.87939 1.8686.7871l.6226-.62039c.3525-.35128.5506-.82772.5506-1.3245 0-1.0345-.8417-1.87313-1.8799-1.87313-.4985 0-.9767.19734-1.3292.54862l-.6226.62039c-.0927.5303.171 1.24522.7899 1.86191z"/><path d="m4 20.2286c0-.4261.34662-.7715.77419-.7715h14.45161c.4276 0 .7742.3454.7742.7715 0 .426-.3466.7714-.7742.7714h-14.45161c-.42757 0-.77419-.3454-.77419-.7714z"/></g></svg>