<svg width="24" height="24" viewBox="0 0 24 24" fill="none" xmlns="http://www.w3.org/2000/svg">
<path d="M11.9999 7.15385C11.6175 7.15385 11.3076 6.84389 11.3076 6.46154V3.69231C11.3076 3.30996 11.6175 3 11.9999 3C12.3823 3 12.6922 3.30996 12.6922 3.69231V6.46154C12.6922 6.84389 12.3823 7.15385 11.9999 7.15385Z" fill="#1B1E28"></path>
<path d="M11.9999 15.6923C14.0391 15.6923 15.6922 14.0392 15.6922 12C15.6922 9.96079 14.0391 8.30769 11.9999 8.30769C9.96072 8.30769 8.30762 9.96079 8.30762 12C8.30762 14.0392 9.96072 15.6923 11.9999 15.6923Z" fill="#1B1E28"></path>
<path d="M16.8462 12C16.8462 11.6176 17.1561 11.3077 17.5385 11.3077H20.3077C20.69 11.3077 21 11.6176 21 12C21 12.3824 20.69 12.6923 20.3077 12.6923H17.5385C17.1561 12.6923 16.8462 12.3824 16.8462 12Z" fill="#1B1E28"></path>
<path d="M3.69231 11.3077C3.30996 11.3077 3 11.6176 3 12C3 12.3824 3.30996 12.6923 3.69231 12.6923H6.46154C6.84389 12.6923 7.15385 12.3824 7.15385 12C7.15385 11.6176 6.84389 11.3077 6.46154 11.3077H3.69231Z" fill="#1B1E28"></path>
<path d="M11.3076 20.3077C11.3076 20.69 11.6175 21 11.9999 21C12.3823 21 12.6922 20.69 12.6922 20.3077V17.5385C12.6922 17.1561 12.3823 16.8462 11.9999 16.8462C11.6175 16.8462 11.3076 17.1561 11.3076 17.5385V20.3077Z" fill="#1B1E28"></path>
</svg>