<svg width="24" height="24" viewBox="0 0 24 24" fill="none" xmlns="http://www.w3.org/2000/svg">
<path fill-rule="evenodd" clip-rule="evenodd" d="M15.7108 9.15692L14.2574 13.801C14.1897 14.0185 14.0195 14.1887 13.8031 14.2564L9.15692 15.7108C9.08821 15.7323 9.01949 15.7426 8.94974 15.7426C8.76923 15.7426 8.5918 15.6718 8.45949 15.5395C8.27795 15.3579 8.21128 15.0892 8.28821 14.8431L9.74256 10.1969C9.81026 9.97949 9.98051 9.81026 10.1969 9.74256L14.8431 8.28923C15.0892 8.21026 15.3579 8.27795 15.5395 8.46051C15.7221 8.64308 15.7877 8.9118 15.7108 9.15692ZM12 2C4.61641 2 2 4.61744 2 12C2 19.3826 4.61641 22 12 22C19.3836 22 22 19.3826 22 12C22 4.61744 19.3836 2 12 2Z" fill="#1B1E28"></path>
</svg>