<svg xmlns="http://www.w3.org/2000/svg" width="17.985" height="17.986" viewBox="0 0 17.985 17.986" fill="none">
  <path d="M 17.885 1.524 L 10.426 17.374 C 10.333 17.57 10.182 17.734 9.993 17.843 C 9.804 17.951 9.587 18 9.37 17.982 C 9.153 17.965 8.947 17.881 8.778 17.744 C 8.609 17.606 8.487 17.42 8.426 17.211 L 7.336 13.395 C 7.15 12.741 6.8 12.146 6.32 11.666 C 5.839 11.185 5.245 10.835 4.591 10.648 L 0.775 9.558 C 0.566 9.497 0.38 9.375 0.242 9.206 C 0.105 9.037 0.021 8.831 0.004 8.614 C -0.014 8.397 0.035 8.179 0.143 7.991 C 0.252 7.802 0.416 7.651 0.612 7.558 L 16.462 0.099 C 16.662 0.007 16.884 -0.022 17.101 0.017 C 17.317 0.055 17.516 0.159 17.671 0.315 C 17.826 0.47 17.93 0.669 17.968 0.885 C 18.006 1.102 17.978 1.324 17.885 1.524 Z" fill="currentColor" fill-rule="nonzero"></path>
</svg>