<svg fill="none" height="24" viewBox="0 0 24 24" width="24" xmlns="http://www.w3.org/2000/svg"><g fill="rgb(0,0,0)"><path d="m12.0005 17.0683c-.414 0-.75-.336-.75-.75v-2.221c0-.414.336-.75.75-.75s.75.336.75.75v2.221c0 .414-.336.75-.75.75z"/><path clip-rule="evenodd" d="m17.3099 8.86624c2.1977 1.00101 3.1004 2.94846 3.1004 6.17026 0 5.119-2.279 7.022-8.41 7.022-6.13097 0-8.40997-1.903-8.40997-7.022 0-3.2214.90253-5.16879 3.09961-6.16991v-1.69106c.047-2.904 2.349-5.197 5.23996-5.234 1.438.007 2.762.518 3.777 1.508 1.017.992 1.586 2.318 1.603 3.737zm-1.1037 1.13976c.0625.0335.1303.0584.2017.0731 1.8663.7196 2.5024 2.2137 2.5024 4.9574 0 4.284-1.55 5.522-6.91 5.522-5.35997 0-6.90997-1.238-6.90997-5.522 0-2.7442.6363-4.2383 2.50331-4.9578.07031-.0146.13703-.0391.19863-.072 1.02749-.35053 2.40133-.4912 4.20803-.4912 1.8055 0 3.1787.14047 4.2059.4905zm-8.01626-1.63454v-1.18393c.033-2.074 1.684-3.72 3.75996-3.746 1.036-.007 1.982.372 2.711 1.083s1.137 1.662 1.149 2.671v1.17575c-1.0574-.24347-2.3198-.35578-3.8096-.35578-1.4901 0-2.75273.11236-3.81036.35596z" fill-rule="evenodd"/></g></svg>