<svg xmlns="http://www.w3.org/2000/svg" width="18" height="17.411" viewBox="0 0 18 17.411" fill="none">
  <path d="M 11.85 2.213 L 11.85 17.113 C 11.85 17.161 11.838 17.208 11.816 17.25 C 11.794 17.293 11.762 17.329 11.722 17.357 C 11.683 17.384 11.638 17.402 11.591 17.409 C 11.543 17.415 11.495 17.41 11.45 17.394 L 6.35 15.479 C 6.292 15.459 6.241 15.421 6.206 15.37 C 6.17 15.32 6.15 15.26 6.15 15.198 L 6.15 0.298 C 6.15 0.25 6.162 0.203 6.184 0.161 C 6.206 0.118 6.238 0.082 6.278 0.055 C 6.317 0.027 6.362 0.009 6.409 0.003 C 6.457 -0.004 6.505 0.001 6.55 0.017 L 11.65 1.932 C 11.708 1.953 11.759 1.991 11.794 2.041 C 11.83 2.091 11.85 2.151 11.85 2.213 Z M 4.215 0.174 L 1.1 1.74 C 0.769 1.907 0.492 2.162 0.297 2.477 C 0.103 2.792 0 3.155 0 3.525 L 0 16.205 C -0.001 16.376 0.042 16.545 0.124 16.695 C 0.207 16.845 0.327 16.971 0.473 17.062 C 0.618 17.152 0.785 17.204 0.956 17.211 C 1.127 17.219 1.297 17.182 1.45 17.105 L 4.485 15.578 C 4.535 15.553 4.576 15.515 4.605 15.468 C 4.635 15.42 4.65 15.366 4.65 15.31 L 4.65 0.442 C 4.65 0.391 4.637 0.341 4.612 0.296 C 4.587 0.251 4.551 0.214 4.507 0.187 C 4.464 0.16 4.414 0.145 4.363 0.142 C 4.312 0.14 4.261 0.151 4.215 0.174 Z M 16.55 0.305 L 13.515 1.832 C 13.465 1.857 13.424 1.895 13.395 1.943 C 13.365 1.99 13.35 2.045 13.35 2.1 L 13.35 16.968 C 13.35 17.019 13.363 17.07 13.388 17.114 C 13.413 17.159 13.449 17.197 13.493 17.224 C 13.536 17.251 13.586 17.266 13.637 17.268 C 13.688 17.27 13.739 17.259 13.785 17.236 L 16.89 15.675 C 17.224 15.507 17.504 15.25 17.7 14.932 C 17.896 14.615 18 14.249 18 13.875 L 18 1.205 C 18.001 1.034 17.958 0.865 17.876 0.715 C 17.793 0.565 17.673 0.439 17.527 0.349 C 17.382 0.258 17.216 0.207 17.044 0.199 C 16.873 0.192 16.703 0.228 16.55 0.305 Z" fill="currentColor" fill-rule="nonzero"></path>
</svg>