<svg fill="none" height="24" viewBox="0 0 24 24" width="24" xmlns="http://www.w3.org/2000/svg"><g clip-rule="evenodd" fill="rgb(0,0,0)" fill-rule="evenodd"><path d="m6.56025 4.39393c1.16144-1.49739 2.96126-2.62974 5.43595-2.62974 2.4743 0 4.274 1.13238 5.4356 2.6297 1.1432 1.47375 1.6754 3.30481 1.6754 4.78982 0 .42624-.013.74268-.0228.98279-.002.0494-.0039.0955-.0056.1387-.0096.2583-.0077.3824.0122.5053.0452.2796.1882.624.7596 1.8833.0057.0126.0111.0254.0161.0383.4128 1.0624.3205 2.0398-.1705 2.868-.4686.7904-1.2561 1.3723-2.1073 1.797-1.7023.8492-3.9527 1.2147-5.5927 1.2147-1.6404 0-3.89105-.3655-5.59337-1.2147-.85126-.4247-1.63877-1.0067-2.10719-1.7971-.49089-.8283-.58299-1.8057-.16988-2.8681.005-.0128.01034-.0255.01604-.0381.57141-1.2593.71443-1.6037.7596-1.8833.01986-.1229.02182-.247.01216-.5053-.00162-.0432-.00351-.0893-.00553-.1387-.00983-.2401-.02278-.55654-.02278-.98279 0-1.48493.53185-3.316 1.675-4.78978zm1.18525.91933c-.92877 1.19741-1.36025 2.7011-1.36025 3.87045 0 .3931.01158.67708.02133.91619.00211.0516.00413.1011.00593.1492.00995.2659.01518.5191-.03031.8007-.08451.523-.34143 1.0892-.8554 2.2219l-.01003.022c-.24888.6527-.16904 1.1394.06928 1.5416.26301.4438.76717.8608 1.48638 1.2196 1.43864.7176 3.44427 1.0569 4.92377 1.0569 1.479 0 3.4844-.3393 4.9231-1.0569.7192-.3588 1.2234-.7758 1.4866-1.2197.2384-.4022.3183-.8889.0697-1.5415l-.01-.0221c-.514-1.1326-.7709-1.6988-.8554-2.2218-.0455-.2816-.0402-.5348-.0303-.8007.0018-.048.0038-.0976.0059-.1492.0098-.2391.0214-.52308.0214-.91619 0-1.16927-.4317-2.67296-1.3606-3.87041-.9106-1.17387-2.2913-2.04911-4.2504-2.04911-1.9596 0-3.34025.87527-4.2507 2.04907z"/><path d="m9.18639 19.9528c.30892-.2759.78304-.2492 1.05901.0598 1.0055 1.1257 2.5027 1.1153 3.5018-.0007.2763-.3086.7505-.3348 1.0591-.0585s.3348.7504.0585 1.059c-1.5895 1.7755-4.1304 1.7994-5.73814-.0006-.27593-.3089-.24919-.783.05973-1.059z"/></g></svg>