<svg width="24" height="24" viewBox="0 0 24 24" fill="none" xmlns="http://www.w3.org/2000/svg">
<path fill-rule="evenodd" clip-rule="evenodd" d="M17.6584 11.123H17.6334C17.2192 11.1071 16.8941 10.7412 16.9081 10.3034C16.9402 9.29771 16.475 8.64519 15.6638 8.55742C15.2517 8.513 14.9516 8.12382 14.9936 7.6881C15.0366 7.25345 15.4067 6.93301 15.8168 6.97954C17.4253 7.15298 18.4666 8.50983 18.4076 10.3563C18.3936 10.7856 18.0605 11.123 17.6584 11.123ZM17.5763 3.28231C15.8558 2.70066 13.4742 2.94178 11.9877 4.72482C10.4263 2.95447 8.12562 2.69748 6.41713 3.28337C2.50101 4.6159 1.27966 9.41298 2.39398 13.0922C4.15248 18.8781 9.99917 22 12.0017 22C13.7893 22 19.868 18.9373 21.6065 13.0922C22.7208 9.41404 21.4965 4.61695 17.5763 3.28231Z" fill="#1B1E28"></path>
</svg>