<svg xmlns="http://www.w3.org/2000/svg" width="19" height="19.000" viewBox="0 0 19 19.000" fill="none">
  <path d="M 9.5 16.25 L 7.5 16.25 C 6.505 16.25 5.552 15.855 4.848 15.152 C 4.145 14.448 3.75 13.495 3.75 12.5 C 3.75 11.505 4.145 10.552 4.848 9.848 C 5.552 9.145 6.505 8.75 7.5 8.75 L 11.5 8.75 C 12.097 8.75 12.669 8.513 13.091 8.091 C 13.513 7.669 13.75 7.097 13.75 6.5 C 13.75 5.903 13.513 5.331 13.091 4.909 C 12.669 4.487 12.097 4.25 11.5 4.25 L 9.5 4.25 C 9.301 4.25 9.11 4.171 8.97 4.03 C 8.829 3.89 8.75 3.699 8.75 3.5 C 8.75 3.301 8.829 3.11 8.97 2.97 C 9.11 2.829 9.301 2.75 9.5 2.75 L 11.5 2.75 C 12.495 2.75 13.448 3.145 14.152 3.848 C 14.855 4.552 15.25 5.505 15.25 6.5 C 15.25 7.495 14.855 8.448 14.152 9.152 C 13.448 9.855 12.495 10.25 11.5 10.25 L 7.5 10.25 C 6.903 10.25 6.331 10.487 5.909 10.909 C 5.487 11.331 5.25 11.903 5.25 12.5 C 5.25 13.097 5.487 13.669 5.909 14.091 C 6.331 14.513 6.903 14.75 7.5 14.75 L 9.5 14.75 C 9.699 14.75 9.89 14.829 10.03 14.97 C 10.171 15.11 10.25 15.301 10.25 15.5 C 10.25 15.699 10.171 15.89 10.03 16.03 C 9.89 16.171 9.699 16.25 9.5 16.25 Z M 7 3.5 C 7 5.537 5.18 6.739 3.975 7.535 L 3.775 7.666 C 3.693 7.721 3.597 7.75 3.498 7.75 C 3.399 7.75 3.303 7.721 3.221 7.666 L 3.021 7.535 C 1.82 6.739 0 5.537 0 3.5 C 0 2.572 0.369 1.682 1.025 1.025 C 1.682 0.369 2.572 0 3.5 0 C 4.428 0 5.318 0.369 5.975 1.025 C 6.631 1.682 7 2.572 7 3.5 Z M 4.52 3.5 C 4.52 3.235 4.415 2.98 4.227 2.793 C 4.04 2.605 3.785 2.5 3.52 2.5 L 3.51 2.5 C 3.313 2.502 3.12 2.562 2.957 2.673 C 2.794 2.784 2.667 2.941 2.593 3.124 C 2.519 3.307 2.501 3.508 2.54 3.701 C 2.58 3.894 2.676 4.072 2.816 4.211 C 2.957 4.349 3.135 4.444 3.329 4.481 C 3.522 4.519 3.723 4.499 3.905 4.423 C 4.087 4.347 4.243 4.219 4.352 4.055 C 4.462 3.89 4.52 3.697 4.52 3.5 Z M 19 14.75 C 19 16.787 17.18 17.989 15.975 18.785 L 15.775 18.916 C 15.693 18.971 15.597 19 15.498 19 C 15.399 19 15.303 18.971 15.221 18.916 L 15.021 18.785 C 13.821 17.985 11.996 16.785 11.996 14.75 C 11.996 13.822 12.365 12.932 13.021 12.275 C 13.678 11.619 14.568 11.25 15.496 11.25 C 16.424 11.25 17.314 11.619 17.971 12.275 C 18.627 12.932 18.996 13.822 18.996 14.75 L 19 14.75 Z M 16.52 14.75 C 16.52 14.485 16.415 14.23 16.227 14.043 C 16.04 13.855 15.785 13.75 15.52 13.75 L 15.51 13.75 C 15.313 13.752 15.12 13.812 14.957 13.923 C 14.794 14.034 14.667 14.191 14.593 14.374 C 14.519 14.557 14.501 14.758 14.54 14.951 C 14.58 15.144 14.676 15.322 14.816 15.461 C 14.957 15.599 15.135 15.694 15.329 15.731 C 15.522 15.769 15.723 15.749 15.905 15.673 C 16.087 15.597 16.243 15.469 16.352 15.305 C 16.462 15.14 16.52 14.947 16.52 14.75 Z" fill="currentColor" fill-rule="nonzero"></path>
</svg>