<svg fill="none" height="24" viewBox="0 0 25 24" width="25" xmlns="http://www.w3.org/2000/svg"><path clip-rule="evenodd" d="m21.7158 2.74131c-.047-.088-.118-.16-.206-.207-2.086-1.11-14.56498 2.758-17.79298 4.62-.841.485-1.216 1.055-1.113 1.691.297 1.84199 5.26 3.23799 7.95298 3.86299l5.057-5.05599c.293-.293.768-.293 1.061 0s.293.768 0 1.061l-5.106 5.10399c.641 2.721 2.022 7.536 3.835 7.828.068.011.136.017.203.017.554 0 1.054-.38 1.487-1.13 1.862-3.225 5.733-15.70199 4.622-17.79099z" fill="rgb(0,0,0)" fill-rule="evenodd"/></svg>