<svg fill="none" height="512" viewBox="0 0 24 24" width="512" xmlns="http://www.w3.org/2000/svg"><g clip-rule="evenodd" fill="rgb(0,0,0)" fill-rule="evenodd"><path d="m15.7252 9.34159c.3091.30191.3091.79141 0 1.09331l-4.2208 4.1232c-.3091.3019-.8101.3019-1.1192 0l-2.11039-2.0616c-.30906-.3019-.30906-.7914 0-1.0933s.81014-.3019 1.1192 0l1.55079 1.5149 3.6612-3.57651c.309-.30191.8101-.30191 1.1192 0z"/><path d="m12.3972 3.60599c-.2585-.07975-.5359-.07975-.7944 0l-7.09788 2.18959c-.63079.19459-1.01647.81551-.90186 1.45192l1.11205 6.1749c.40801 2.2656 1.59214 4.2966 3.5001 5.4637.70091.4287 1.43131.8289 2.11179 1.1196.697.2977 1.2683.4481 1.673.4481s.976-.1504 1.673-.4481c.6805-.2907 1.4109-.6909 2.1118-1.1196 1.908-1.1671 3.0921-3.1981 3.5001-5.4637l1.112-6.1749c.1147-.63641-.271-1.25733-.9018-1.45192zm-1.271-1.47441c.5687-.17544 1.1789-.17544 1.7476 0l7.0979 2.18959c1.3877.42809 2.2362 1.79411 1.9841 3.19423l-1.1121 6.1749c-.4668 2.5921-1.8476 5.0557-4.2189 6.5063-.7372.4509-1.5399.8935-2.3177 1.2257-.7612.3252-1.5732.5777-2.3071.5777s-1.5459-.2525-2.30712-.5777c-.77778-.3322-1.58051-.7748-2.3177-1.2257-2.3713-1.4506-3.75211-3.9142-4.21892-6.5063l-1.11205-6.1749c-.25215-1.40012.59635-2.76614 1.98408-3.19423z"/></g></svg>