<svg fill="none" height="24" viewBox="0 0 24 24" width="24" xmlns="http://www.w3.org/2000/svg"><g fill="rgb(0,0,0)"><path d="m9.00004 17.25c-.41422 0-.75.3358-.75.75s.33578.75.75.75h5.99996c.4143 0 .75-.3358.75-.75s-.3357-.75-.75-.75z"/><path clip-rule="evenodd" d="m12 1.25c-.7063 0-1.1549.49936-1.4566.94718-.3062.45449-.62572 1.10931-1.00454 1.88565l-2.26278 4.63676c-.21903.44884-.35994.73564-.4822.93463-.08485.13811-.13121.18255-.14207.19198-.03125.01452-.06039.01917-.08724.01727-.01734-.00962-.06593-.04031-.15528-.12292-.16208-.14987-.36388-.37813-.68391-.74245l-.0291-.03313c-.57268-.65197-1.04049-1.18455-1.4258-1.54475-.19757-.1847-.40523-.35492-.62349-.47692-.22193-.12406-.50061-.22375-.81859-.19582-.47307.04155-.89284.2808-1.18715.63639-.35507.42899-.39503 1.02872-.39099 1.54717.00435.56006.07432 1.30336.16125 2.22696l.23734 2.5218c.18499 1.9657.32988 3.5052.58086 4.7012.25569 1.2185.64008 2.1826 1.37411 2.9335.74506.7622 1.66054 1.1109 2.79191 1.2764 1.0883.1591 2.46296.1591 4.18487.1591h2.8388c1.722 0 3.0966 0 4.1849-.1591 1.1314-.1655 2.0469-.5142 2.792-1.2764.734-.7509 1.1184-1.715 1.3741-2.9335.2509-1.196.3958-2.7355.5808-4.7012l.2374-2.5218c.0869-.9236.1569-1.66691.1612-2.22696.004-.51845-.0359-1.11818-.391-1.54717-.2943-.35559-.7141-.59484-1.1871-.63639-.318-.02793-.5967.07176-.8186.19582-.2183.122-.4259.29222-.6235.47692-.3853.36021-.8531.89278-1.4258 1.54476l-.0291.03312c-.32.36432-.5218.59258-.6839.74245-.0894.08261-.138.1133-.1553.12292-.0269.0019-.056-.00275-.0872-.01727-.0109-.00943-.0573-.05388-.1421-.19198-.1223-.19899-.2632-.4858-.4822-.93464l-2.2628-4.63676c-.3788-.77634-.6983-1.43115-1.0045-1.88565-.3017-.44782-.7503-.94717-1.4567-.94717zm-1.139 3.54379c.4117-.84366.686-1.40174.9264-1.75854.1018-.15111.1718-.22666.2126-.26305.0409.03639.1109.11194.2127.26305.2403.3568.5147.91488.9264 1.75853l2.2526 4.61591c.1987.40719.3713.76101.5364 1.02981.1691.2752.3922.5687.7395.7435.3135.1578.6666.2157 1.0161.1605.3933-.0622.6918-.2856.9254-.5016.2265-.2094.4801-.4981.7677-.8255l.0248-.02836c.6089-.6931 1.0278-1.1687 1.3523-1.47205.1606-.15012.2662-.2271.3311-.26337l.0009-.00049c.0337.01232.0729.03672.1116.08138 0-.00003.0001-.00002 0 0-.0003.00017.0002.00212.0015.00634.0094.02982.054.17167.0509.57952-.0038.48731-.067 1.16553-.1584 2.13663l-.2292 2.4353c-.1905 2.024-.3285 3.4786-.56 4.5816-.2288 1.0903-.5301 1.7342-.9787 2.1931-.4375.4476-.9996.7037-1.9363.8407-.9673.1414-2.2322.1433-4.0273.1433h-2.7199c-1.79509 0-3.06-.0019-4.02731-.1433-.93674-.137-1.49879-.3931-1.93635-.8407-.44859-.4589-.74992-1.1028-.97871-2.1931-.23145-1.103-.3695-2.5576-.55999-4.5816l-.2292-2.4353c-.09139-.9711-.15454-1.64932-.15833-2.13663-.00317-.40777.04132-.54962.05068-.57947.00133-.00423.00195-.00622.00163-.00638.03871-.04467.07792-.06907.11169-.08139l.00089.00049c.06488.03627.17044.11325.33103.26337.3245.30335.74347.77895 1.3523 1.47205l.02488.02836c.28758.3274.54113.6161.76764.8255.23366.216.5321.4394.92539.5016.34952.0552.70267-.0027 1.01611-.1605.34737-.1748.57037-.4683.73947-.7435.16514-.2688.33777-.62258.53644-1.02974zm10.3365 3.53972c.0019.00221.0039.00446.0058.00677-.0024-.0029-.004-.00498-.005-.00603-.0003-.0004-.0006-.00065-.0008-.00074zm-9.1534-5.59255c0 .00047-.0032.00237-.0093.00431.0063-.00381.0093-.00478.0093-.00431zm-.0789.00431c-.0061-.00194-.0092-.00384-.0092-.00431-.0001-.00047.003.0005.0092.00431z" fill-rule="evenodd"/></g></svg>