<svg width="24" height="24" viewBox="0 0 24 24" fill="none" xmlns="http://www.w3.org/2000/svg">
<path d="M2.02441 11.9521C4.65777 13.2675 7.8692 14.0271 11.2275 14.1289V16.1494C11.2275 16.5359 11.5736 16.8496 12 16.8496C12.4264 16.8496 12.7725 16.5359 12.7725 16.1494V14.1299C16.1288 14.0337 19.3401 13.2815 21.9775 11.9736C21.992 12.264 22 12.5642 22 12.876C21.9999 18.8745 19.3829 21 12 21C4.6171 21 2.00013 18.8745 2 12.876C2 12.5567 2.00897 12.2499 2.02441 11.9521ZM13.2363 2C14.8315 2.0001 16.1298 3.27242 16.1299 4.83691V5.0752C19.5418 5.70533 21.257 7.32596 21.8008 10.3721C19.1159 11.8666 15.6436 12.6915 12.0205 12.6943C8.39037 12.6915 4.90949 11.8634 2.22266 10.3623C2.21656 10.3587 2.20924 10.3591 2.20215 10.3555C2.75001 7.32069 4.46361 5.70445 7.87012 5.0752V4.83691C7.87016 3.27236 9.16942 2 10.7646 2H13.2363ZM10.7646 3.40039C10.0211 3.40039 9.41508 4.04438 9.41504 4.83691V4.85938C10.2028 4.7875 11.0619 4.75196 12 4.75195C12.9371 4.75195 13.7962 4.78751 14.585 4.85938V4.83691C14.5849 4.04445 13.9798 3.4005 13.2363 3.40039H10.7646Z" fill="black"></path>
</svg>